<svg xmlns="http://www.w3.org/2000/svg" version="1.1" xmlns:xlink="http://www.w3.org/1999/xlink" xmlns:svgjs="http://svgjs.dev/svgjs" viewBox="0 0 800 800"><defs><linearGradient x1="50%" y1="0%" x2="50%" y2="100%" id="ffflurry-grad" gradientTransform="rotate(270)"><stop stop-color="hsl(0, 0%, 100%)" stop-opacity="1" offset="0%"></stop><stop stop-color="hsl(205, 69%, 60%)" stop-opacity="1" offset="45%"></stop><stop stop-color="hsl(205, 69%, 80%)" stop-opacity="1" offset="100%"></stop></linearGradient></defs><rect width="100%" height="100%" fill="hsl(0, 0%, 100%)"></rect><g fill="url(#ffflurry-grad)"><rect width="475" height="1" x="141.5" y="34.5" rx="0.5" transform="rotate(132, 379, 35)" opacity="0.81"></rect><rect width="367" height="1" x="256.5" y="209.5" rx="0.5" transform="rotate(132, 440, 210)" opacity="0.34"></rect><rect width="155" height="1" x="115.5" y="442.5" rx="0.5" transform="rotate(132, 193, 443)" opacity="0.26"></rect><rect width="421" height="1" x="-167.5" y="102.5" rx="0.5" transform="rotate(132, 43, 103)" opacity="0.63"></rect><rect width="388" height="1" x="252" y="596.5" rx="0.5" transform="rotate(132, 446, 597)" opacity="0.95"></rect><rect width="424" height="1" x="417" y="31.5" rx="0.5" transform="rotate(132, 629, 32)" opacity="0.39"></rect><rect width="302" height="1" x="17" y="285.5" rx="0.5" transform="rotate(132, 168, 286)" opacity="0.53"></rect><rect width="207" height="1" x="153.5" y="195.5" rx="0.5" transform="rotate(132, 257, 196)" opacity="0.76"></rect><rect width="595" height="1" x="461.5" y="163.5" rx="0.5" transform="rotate(132, 759, 164)" opacity="0.64"></rect><rect width="375" height="1" x="103.5" y="716.5" rx="0.5" transform="rotate(132, 291, 717)" opacity="0.73"></rect><rect width="405" height="1" x="-79.5" y="226.5" rx="0.5" transform="rotate(132, 123, 227)" opacity="0.86"></rect><rect width="440" height="1" x="386" y="164.5" rx="0.5" transform="rotate(132, 606, 165)" opacity="0.58"></rect><rect width="243" height="1" x="258.5" y="339.5" rx="0.5" transform="rotate(132, 380, 340)" opacity="0.08"></rect><rect width="483" height="1" x="391.5" y="278.5" rx="0.5" transform="rotate(132, 633, 279)" opacity="0.92"></rect><rect width="102" height="1" x="723" y="546.5" rx="0.5" transform="rotate(132, 774, 547)" opacity="0.44"></rect><rect width="356" height="1" x="-135" y="476.5" rx="0.5" transform="rotate(132, 43, 477)" opacity="0.69"></rect><rect width="278" height="1" x="-17" y="127.5" rx="0.5" transform="rotate(132, 122, 128)" opacity="0.46"></rect><rect width="196" height="1" x="-40" y="206.5" rx="0.5" transform="rotate(132, 58, 207)" opacity="0.54"></rect><rect width="563" height="1" x="184.5" y="42.5" rx="0.5" transform="rotate(132, 466, 43)" opacity="0.33"></rect><rect width="502" height="1" x="175" y="439.5" rx="0.5" transform="rotate(132, 426, 440)" opacity="0.73"></rect><rect width="275" height="1" x="237.5" y="490.5" rx="0.5" transform="rotate(132, 375, 491)" opacity="0.72"></rect><rect width="170" height="1" x="568" y="352.5" rx="0.5" transform="rotate(132, 653, 353)" opacity="0.70"></rect><rect width="350" height="1" x="387" y="246.5" rx="0.5" transform="rotate(132, 562, 247)" opacity="0.40"></rect><rect width="145" height="1" x="360.5" y="538.5" rx="0.5" transform="rotate(132, 433, 539)" opacity="0.17"></rect><rect width="451" height="1" x="-189.5" y="764.5" rx="0.5" transform="rotate(132, 36, 765)" opacity="0.37"></rect><rect width="308" height="1" x="317" y="266.5" rx="0.5" transform="rotate(132, 471, 267)" opacity="0.90"></rect><rect width="457" height="1" x="39.5" y="35.5" rx="0.5" transform="rotate(132, 268, 36)" opacity="0.70"></rect><rect width="195" height="1" x="25.5" y="520.5" rx="0.5" transform="rotate(132, 123, 521)" opacity="0.24"></rect><rect width="396" height="1" x="568" y="420.5" rx="0.5" transform="rotate(132, 766, 421)" opacity="0.32"></rect><rect width="295" height="1" x="115.5" y="377.5" rx="0.5" transform="rotate(132, 263, 378)" opacity="0.52"></rect><rect width="393" height="1" x="141.5" y="268.5" rx="0.5" transform="rotate(132, 338, 269)" opacity="0.37"></rect><rect width="277" height="1" x="58.5" y="100.5" rx="0.5" transform="rotate(132, 197, 101)" opacity="0.87"></rect><rect width="67" height="1" x="144.5" y="33.5" rx="0.5" transform="rotate(132, 178, 34)" opacity="0.57"></rect><rect width="232" height="1" x="383" y="424.5" rx="0.5" transform="rotate(132, 499, 425)" opacity="0.09"></rect><rect width="426" height="1" x="-48" y="652.5" rx="0.5" transform="rotate(132, 165, 653)" opacity="0.46"></rect><rect width="255" height="1" x="389.5" y="598.5" rx="0.5" transform="rotate(132, 517, 599)" opacity="0.49"></rect><rect width="402" height="1" x="30" y="768.5" rx="0.5" transform="rotate(132, 231, 769)" opacity="0.30"></rect><rect width="127" height="1" x="405.5" y="656.5" rx="0.5" transform="rotate(132, 469, 657)" opacity="0.99"></rect><rect width="107" height="1" x="665.5" y="27.5" rx="0.5" transform="rotate(132, 719, 28)" opacity="0.85"></rect><rect width="275" height="1" x="638.5" y="617.5" rx="0.5" transform="rotate(132, 776, 618)" opacity="0.16"></rect><rect width="562" height="1" x="-139" y="387.5" rx="0.5" transform="rotate(132, 142, 388)" opacity="0.70"></rect><rect width="180" height="1" x="293" y="603.5" rx="0.5" transform="rotate(132, 383, 604)" opacity="0.90"></rect><rect width="175" height="1" x="251.5" y="550.5" rx="0.5" transform="rotate(132, 339, 551)" opacity="0.48"></rect><rect width="249" height="1" x="615.5" y="686.5" rx="0.5" transform="rotate(132, 740, 687)" opacity="0.35"></rect><rect width="97" height="1" x="685.5" y="472.5" rx="0.5" transform="rotate(132, 734, 473)" opacity="0.96"></rect><rect width="524" height="1" x="98" y="412.5" rx="0.5" transform="rotate(132, 360, 413)" opacity="0.89"></rect><rect width="122" height="1" x="701" y="75.5" rx="0.5" transform="rotate(132, 762, 76)" opacity="0.30"></rect><rect width="194" height="1" x="672" y="344.5" rx="0.5" transform="rotate(132, 769, 345)" opacity="0.91"></rect><rect width="79" height="1" x="367.5" y="270.5" rx="0.5" transform="rotate(132, 407, 271)" opacity="0.59"></rect><rect width="246" height="1" x="544" y="103.5" rx="0.5" transform="rotate(132, 667, 104)" opacity="0.59"></rect><rect width="36" height="1" x="2" y="170.5" rx="0.5" transform="rotate(132, 20, 171)" opacity="0.18"></rect><rect width="250" height="1" x="-21" y="726.5" rx="0.5" transform="rotate(132, 104, 727)" opacity="0.10"></rect><rect width="670" height="1" x="299" y="730.5" rx="0.5" transform="rotate(132, 634, 731)" opacity="0.84"></rect><rect width="115" height="1" x="625.5" y="500.5" rx="0.5" transform="rotate(132, 683, 501)" opacity="0.69"></rect><rect width="109" height="1" x="259.5" y="615.5" rx="0.5" transform="rotate(132, 314, 616)" opacity="0.84"></rect><rect width="70" height="1" x="282" y="337.5" rx="0.5" transform="rotate(132, 317, 338)" opacity="0.97"></rect><rect width="150" height="1" x="331" y="665.5" rx="0.5" transform="rotate(132, 406, 666)" opacity="0.53"></rect><rect width="59" height="1" x="333.5" y="739.5" rx="0.5" transform="rotate(132, 363, 740)" opacity="0.64"></rect><rect width="101" height="1" x="347.5" y="131.5" rx="0.5" transform="rotate(132, 398, 132)" opacity="0.42"></rect><rect width="69" height="1" x="698.5" y="765.5" rx="0.5" transform="rotate(132, 733, 766)" opacity="0.15"></rect><rect width="151" height="1" x="298.5" y="780.5" rx="0.5" transform="rotate(132, 374, 781)" opacity="0.24"></rect><rect width="346" height="1" x="167" y="204.5" rx="0.5" transform="rotate(132, 340, 205)" opacity="0.96"></rect><rect width="181" height="1" x="410.5" y="118.5" rx="0.5" transform="rotate(132, 501, 119)" opacity="0.86"></rect><rect width="350" height="1" x="537" y="323.5" rx="0.5" transform="rotate(132, 712, 324)" opacity="0.49"></rect><rect width="162" height="1" x="479" y="59.5" rx="0.5" transform="rotate(132, 560, 60)" opacity="0.92"></rect><rect width="315" height="1" x="-124.5" y="691.5" rx="0.5" transform="rotate(132, 33, 692)" opacity="0.22"></rect><rect width="65" height="1" x="161.5" y="577.5" rx="0.5" transform="rotate(132, 194, 578)" opacity="0.49"></rect><rect width="273" height="1" x="-88.5" y="392.5" rx="0.5" transform="rotate(132, 48, 393)" opacity="0.29"></rect><rect width="128" height="1" x="-22" y="620.5" rx="0.5" transform="rotate(132, 42, 621)" opacity="0.89"></rect><rect width="73" height="1" x="295.5" y="670.5" rx="0.5" transform="rotate(132, 332, 671)" opacity="0.63"></rect><rect width="240" height="1" x="260" y="701.5" rx="0.5" transform="rotate(132, 380, 702)" opacity="0.48"></rect><rect width="136" height="1" x="35" y="641.5" rx="0.5" transform="rotate(132, 103, 642)" opacity="0.66"></rect><rect width="483" height="1" x="304.5" y="741.5" rx="0.5" transform="rotate(132, 546, 742)" opacity="0.53"></rect><rect width="87" height="1" x="91.5" y="775.5" rx="0.5" transform="rotate(132, 135, 776)" opacity="0.25"></rect><rect width="388" height="1" x="491" y="194.5" rx="0.5" transform="rotate(132, 685, 195)" opacity="0.09"></rect><rect width="439" height="1" x="244.5" y="715.5" rx="0.5" transform="rotate(132, 464, 716)" opacity="0.46"></rect><rect width="122" height="1" x="552" y="494.5" rx="0.5" transform="rotate(132, 613, 495)" opacity="0.85"></rect><rect width="237" height="1" x="334.5" y="772.5" rx="0.5" transform="rotate(132, 453, 773)" opacity="0.62"></rect><rect width="51" height="1" x="417.5" y="360.5" rx="0.5" transform="rotate(132, 443, 361)" opacity="0.82"></rect><rect width="34" height="1" x="174" y="181.5" rx="0.5" transform="rotate(132, 191, 182)" opacity="0.40"></rect><rect width="412" height="1" x="385" y="378.5" rx="0.5" transform="rotate(132, 591, 379)" opacity="0.45"></rect><rect width="304" height="1" x="98" y="463.5" rx="0.5" transform="rotate(132, 250, 464)" opacity="0.51"></rect><rect width="368" height="1" x="473" y="600.5" rx="0.5" transform="rotate(132, 657, 601)" opacity="0.08"></rect><rect width="417" height="1" x="98.5" y="474.5" rx="0.5" transform="rotate(132, 307, 475)" opacity="0.36"></rect><rect width="487" height="1" x="1.5" y="291.5" rx="0.5" transform="rotate(132, 245, 292)" opacity="0.95"></rect><rect width="136" height="1" x="477" y="501.5" rx="0.5" transform="rotate(132, 545, 502)" opacity="0.11"></rect><rect width="618" height="1" x="-253" y="300.5" rx="0.5" transform="rotate(132, 56, 301)" opacity="0.89"></rect><rect width="114" height="1" x="667" y="583.5" rx="0.5" transform="rotate(132, 724, 584)" opacity="0.51"></rect><rect width="186" height="1" x="226" y="71.5" rx="0.5" transform="rotate(132, 319, 72)" opacity="0.98"></rect><rect width="441" height="1" x="-24.5" y="717.5" rx="0.5" transform="rotate(132, 196, 718)" opacity="0.33"></rect><rect width="363" height="1" x="501.5" y="412.5" rx="0.5" transform="rotate(132, 683, 413)" opacity="0.96"></rect><rect width="422" height="1" x="295" y="310.5" rx="0.5" transform="rotate(132, 506, 311)" opacity="0.36"></rect><rect width="554" height="1" x="307" y="628.5" rx="0.5" transform="rotate(132, 584, 629)" opacity="0.38"></rect><rect width="175" height="1" x="622.5" y="253.5" rx="0.5" transform="rotate(132, 710, 254)" opacity="0.36"></rect><rect width="226" height="1" x="656" y="501.5" rx="0.5" transform="rotate(132, 769, 502)" opacity="0.32"></rect><rect width="333" height="1" x="307.5" y="492.5" rx="0.5" transform="rotate(132, 474, 493)" opacity="0.96"></rect><rect width="563" height="1" x="-22.5" y="549.5" rx="0.5" transform="rotate(132, 259, 550)" opacity="0.71"></rect><rect width="299" height="1" x="-111.5" y="557.5" rx="0.5" transform="rotate(132, 38, 558)" opacity="0.39"></rect><rect width="151" height="1" x="176.5" y="656.5" rx="0.5" transform="rotate(132, 252, 657)" opacity="0.80"></rect><rect width="409" height="1" x="566.5" y="255.5" rx="0.5" transform="rotate(132, 771, 256)" opacity="0.31"></rect><rect width="273" height="1" x="365.5" y="181.5" rx="0.5" transform="rotate(132, 502, 182)" opacity="0.43"></rect><rect width="252" height="1" x="173" y="131.5" rx="0.5" transform="rotate(132, 299, 132)" opacity="0.62"></rect><rect width="239" height="1" x="-52.5" y="34.5" rx="0.5" transform="rotate(132, 67, 35)" opacity="0.35"></rect><rect width="149" height="1" x="228.5" y="772.5" rx="0.5" transform="rotate(132, 303, 773)" opacity="0.78"></rect><rect width="38" height="1" x="512" y="371.5" rx="0.5" transform="rotate(132, 531, 372)" opacity="0.72"></rect></g></svg>